<?xml version="1.0" encoding="utf-8"?>
<!-- Uploaded to: SVG Repo, www.svgrepo.com, Generator: SVG Repo Mixer Tools -->
<!DOCTYPE svg PUBLIC "-//W3C//DTD SVG 1.1//EN" "http://www.w3.org/Graphics/SVG/1.1/DTD/svg11.dtd">
<svg fill="#000000" width="800px" height="800px" viewBox="0 0 1000 1000" version="1.1" xmlns="http://www.w3.org/2000/svg" xmlns:xlink="http://www.w3.org/1999/xlink"  enable-background="new 0 0 1000 1000" xml:space="preserve">

<g>
<g transform="translate(0.000000,511.000000) scale(0.100000,-0.100000)">
<path d="M1996.8,4693.9v-316.1h158.1h158.1v316.1V5010h-158.1h-158.1V4693.9z"/>
<path d="M3893.5,4377.7v-632.3h474.2h474.2v-474.2v-474.2h632.3h632.2v474.2v474.2h474.2h474.2v632.3V5010H5474.2H3893.5V4377.7z M4841.9,4377.7v-316.1h-316.1h-316.1v316.1v316.1h316.1h316.1V4377.7z M5790.3,4377.7v-316.1h-316.1h-316.1v316.1v316.1h316.1h316.1V4377.7z M6738.7,4377.7v-316.1h-316.1h-316.1v316.1v316.1h316.1h316.1V4377.7z M5790.3,3429.4v-316.1h-316.1h-316.1v316.1v316.1h316.1h316.1V3429.4z"/>
<path d="M7687.1,4693.9v-316.1h158.1h158.1v316.1V5010h-158.1h-158.1V4693.9z"/>
<path d="M1996.8,3745.5v-316.1h158.1h158.1v316.1v316.1h-158.1h-158.1V3745.5z"/>
<path d="M7687.1,3745.5v-316.1h158.1h158.1v316.1v316.1h-158.1h-158.1V3745.5z"/>
<path d="M1996.8,2797.1V2481h158.1h158.1v316.1v316.1h-158.1h-158.1V2797.1z"/>
<path d="M7687.1,2797.1V2481h158.1h158.1v316.1v316.1h-158.1h-158.1V2797.1z"/>
<path d="M1996.8,1848.7v-316.1h158.1h158.1v316.1v316.1h-158.1h-158.1V1848.7z"/>
<path d="M5790.3,1690.6v-474.2h-474.2h-474.2V110V-996.5h632.3h632.2v474.2v474.2h474.2h474.2v1106.5v1106.5h-632.3h-632.3V1690.6z M6738.7,1532.6v-316.1h-316.1h-316.1v316.1v316.1h316.1h316.1V1532.6z M5790.3,584.2V268.1h-316.1h-316.1v316.1v316.1h316.1h316.1V584.2z M6738.7,584.2V268.1h-316.1h-316.1v316.1v316.1h316.1h316.1V584.2z M5790.3-364.2v-316.1h-316.1h-316.1v316.1v316.1h316.1h316.1V-364.2z"/>
<path d="M7687.1,1848.7v-316.1h158.1h158.1v316.1v316.1h-158.1h-158.1V1848.7z"/>
<path d="M1996.8,900.3V584.2h158.1h158.1v316.1v316.1h-158.1h-158.1V900.3z"/>
<path d="M7687.1,900.3V584.2h158.1h158.1v316.1v316.1h-158.1h-158.1V900.3z"/>
<path d="M1996.8-48.1v-316.1h158.1h158.1v316.1v316.1h-158.1h-158.1V-48.1z"/>
<path d="M7687.1-48.1v-316.1h158.1h158.1v316.1v316.1h-158.1h-158.1V-48.1z"/>
<path d="M1996.8-996.5v-316.1h158.1h158.1v316.1v316.1h-158.1h-158.1V-996.5z"/>
<path d="M7687.1-996.5v-316.1h158.1h158.1v316.1v316.1h-158.1h-158.1V-996.5z"/>
<path d="M100-3209.4V-4790h4900h4900v1580.6v1580.6H8319.4H6738.7v-474.2v-474.2h-474.2h-474.2v-474.2v-474.2h-316.1h-316.1v948.4v948.4H2629H100V-3209.4z M1048.4-2261v-316.1H732.3H416.1v316.1v316.1h316.1h316.1V-2261z M1996.8-2261v-316.1h-316.1h-316.1v316.1v316.1h316.1h316.1V-2261z M2945.2-2261v-316.1H2629h-316.1v316.1v316.1H2629h316.1V-2261z M3893.5-2261v-316.1h-316.1h-316.1v316.1v316.1h316.1h316.1V-2261z M4841.9-2261v-316.1h-316.1h-316.1v316.1v316.1h316.1h316.1V-2261z M7687.1-2261v-316.1H7371h-316.1v316.1v316.1H7371h316.1V-2261z M8635.5-2261v-316.1h-316.1h-316.1v316.1v316.1h316.1h316.1V-2261z M9583.9-2261v-316.1h-316.1h-316.1v316.1v316.1h316.1h316.1V-2261z M1048.4-3209.4v-316.1H732.3H416.1v316.1v316.1h316.1h316.1V-3209.4z M1996.8-3209.4v-316.1h-316.1h-316.1v316.1v316.1h316.1h316.1V-3209.4z M2945.2-3209.4v-316.1H2629h-316.1v316.1v316.1H2629h316.1V-3209.4z M3893.5-3209.4v-316.1h-316.1h-316.1v316.1v316.1h316.1h316.1V-3209.4z M4841.9-3209.4v-316.1h-316.1h-316.1v316.1v316.1h316.1h316.1V-3209.4z M6738.7-3209.4v-316.1h-316.1h-316.1v316.1v316.1h316.1h316.1V-3209.4z M7687.1-3209.4v-316.1H7371h-316.1v316.1v316.1H7371h316.1V-3209.4z M8635.5-3209.4v-316.1h-316.1h-316.1v316.1v316.1h316.1h316.1V-3209.4z M9583.9-3209.4v-316.1h-316.1h-316.1v316.1v316.1h316.1h316.1V-3209.4z M1048.4-4157.7v-316.1H732.3H416.1v316.1v316.1h316.1h316.1V-4157.7z M1996.8-4157.7v-316.1h-316.1h-316.1v316.1v316.1h316.1h316.1V-4157.7z M2945.2-4157.7v-316.1H2629h-316.1v316.1v316.1H2629h316.1V-4157.7z M3893.5-4157.7v-316.1h-316.1h-316.1v316.1v316.1h316.1h316.1V-4157.7z M4841.9-4157.7v-316.1h-316.1h-316.1v316.1v316.1h316.1h316.1V-4157.7z M5790.3-4157.7v-316.1h-316.1h-316.1v316.1v316.1h316.1h316.1V-4157.7z M6738.7-4157.7v-316.1h-316.1h-316.1v316.1v316.1h316.1h316.1V-4157.7z M7687.1-4157.7v-316.1H7371h-316.1v316.1v316.1H7371h316.1V-4157.7z M8635.5-4157.7v-316.1h-316.1h-316.1v316.1v316.1h316.1h316.1V-4157.7z M9583.9-4157.7v-316.1h-316.1h-316.1v316.1v316.1h316.1h316.1V-4157.7z"/>
</g>
</g>
</svg>